<?xml version="1.0" encoding="UTF-8"?>
<svg width="98px" height="96px" viewBox="0 0 98 96" version="1.1" xmlns="http://www.w3.org/2000/svg" xmlns:xlink="http://www.w3.org/1999/xlink">
    <title>github-mark</title>
    <g id="Page-1" stroke="none" stroke-width="1" fill="none" fill-rule="evenodd">
        <g id="github-mark" fill="#000000" fill-rule="nonzero">
            <path d="M48.854,0 C21.839,0 0,22 0,49.217 C0,70.973 13.993,89.389 33.405,95.904 C35.832,96.393 36.721,94.9 36.721,93.6 C36.721,92.4 36.641,89.1 36.641,84.9 C23.051,87.9 20.145,79.1 20.145,79.1 C17.897,73.4 14.731,71.9 14.731,71.9 C10.326,68.9 15.051,68.9 15.051,68.9 C19.936,69.2 22.504,73.9 22.504,73.9 C26.829,81.4 33.805,79.4 36.881,78.1 C37.291,74.9 38.581,72.8 39.951,71.6 C29.105,70.4 17.739,66.2 17.739,47.1 C17.739,41.7 19.648,37.3 22.584,33.9 C22.094,32.6 20.425,27.5 23.051,20.7 C23.051,20.7 27.137,19.4 36.641,25.8 C40.558,24.7 44.714,24.2 48.854,24.2 C52.994,24.2 57.15,24.7 61.067,25.8 C70.571,19.4 74.657,20.7 74.657,20.7 C77.283,27.5 75.614,32.6 75.124,33.9 C78.06,37.3 79.969,41.7 79.969,47.1 C79.969,66.2 68.603,70.4 57.757,71.6 C59.447,73.1 60.897,76 60.897,80.5 C60.897,86.9 60.817,91.9 60.817,93.6 C60.817,94.9 61.706,96.393 64.133,95.904 C83.545,89.389 97.538,70.973 97.538,49.217 C97.698,22 75.859,0 48.854,0 Z" id="Path"></path>
        </g>
    </g>
</svg>
